<?xml version="1.0" encoding="utf-8"?><!-- Uploaded to: SVG Repo, www.svgrepo.com, Generator: SVG Repo Mixer Tools -->
<svg width="800px" height="800px" viewBox="0 0 24 24" fill="none" xmlns="http://www.w3.org/2000/svg">
<path d="M14.2639 15.9376L12.5958 14.2835C11.7909 13.4852 11.3884 13.0861 10.9266 12.9402C10.5204 12.8119 10.0838 12.8166 9.68048 12.9537C9.22188 13.1096 8.82814 13.5173 8.04068 14.3327L4.04409 18.2802M14.2639 15.9376L14.6053 15.5991C15.4112 14.7999 15.8141 14.4003 16.2765 14.2544C16.6831 14.1262 17.12 14.1312 17.5236 14.2688C17.9824 14.4252 18.3761 14.834 19.1634 15.6515L20 16.4936M14.2639 15.9376L18.275 19.9566M20.9992 6.00011H14.9992M11 3.99951L7.2 4.00011C6.07989 4.00011 5.51984 4.00011 5.09202 4.21809C4.71569 4.40984 4.40973 4.7158 4.21799 5.09213C4 5.51995 4 6.08 4 7.20011V16.8001C4 17.4576 4 17.9222 4.04409 18.2802M20 9.99951V16.4936M4.04409 18.2802C4.07512 18.5322 4.12796 18.7314 4.21799 18.9081C4.40973 19.2844 4.71569 19.5904 5.09202 19.7821C5.51984 20.0001 6.07989 20.0001 7.2 20.0001H16.8C17.9201 20.0001 18.4802 20.0001 18.908 19.7821C19.2843 19.5904 19.5903 19.2844 19.782 18.9081C20 18.4803 20 17.9202 20 16.8001V16.4936" stroke="#FFFFFF" stroke-width="2" stroke-linecap="round" stroke-linejoin="round"/>
</svg>